<svg width="48" height="30" viewBox="0 0 48 30" fill="none" xmlns="http://www.w3.org/2000/svg">
<path d="M18.5712 0.291704C17.7747 0.57118 17.09 1.04629 16.531 1.70306L16 2.3179L15.3712 2.17817C14.5048 1.96856 13.5266 2.1083 12.7441 2.54149C12.3808 2.73712 11.4865 3.43581 10.7598 4.0786C10.0332 4.73537 7.64367 6.56594 5.44978 8.15895C3.2559 9.75197 1.13188 11.2891 0.740611 11.5825C0.069869 12.0716 0 12.1694 0 12.6725C0 13.1057 0.069869 13.2734 0.349345 13.455C0.558952 13.5808 0.824454 13.6507 1.00611 13.5948C1.64891 13.4271 10.5921 6.88734 12.3668 5.29432C13.6384 4.14847 14.407 3.77118 14.9939 3.99476L15.3712 4.14847V10.0873V16.0262L14.5747 16.3755C14.1275 16.5712 13.6803 16.8367 13.5965 16.9624C13.331 17.3118 13.3729 17.9127 13.6943 18.1921C14.2393 18.6812 14.0017 18.779 23.6856 14.2795C27.1231 12.6865 28.0035 12.4489 28.8559 12.8402C29.345 13.0638 29.7642 13.9162 29.7642 14.6987C29.7642 15.9004 29.1074 16.9345 27.752 17.9127C26.7598 18.6114 24.2026 19.8969 22.8332 20.3721C21.9389 20.6795 21.7293 20.8472 19.6751 22.8454C17.7886 24.662 17.3135 25.0533 16.4192 25.4865C14.9659 26.1712 13.8201 26.3109 6.65153 26.7022C0.628821 27.0236 0.503057 27.0236 0.251528 27.345C-0.0838428 27.7502 -0.069869 28.2533 0.279476 28.6026C0.628821 28.952 0.81048 28.952 5.40786 28.6725C7.3083 28.5607 10.0332 28.407 11.4585 28.3231C13.9598 28.1974 15.7345 27.89 16.6987 27.4568C17.0341 27.3031 17.1039 27.317 17.1598 27.4707C17.3275 27.9598 18.1939 28.7144 18.7808 28.8821C19.745 29.1476 21.1843 29.0218 22.0227 28.5747L22.7214 28.2114L23.3083 28.8821C23.979 29.6646 24.7895 30 25.9633 30C27.0114 30 27.6541 29.7764 28.5066 29.1336C29.1633 28.6306 29.2751 28.6026 29.6664 28.7284C29.89 28.8122 30.407 28.8821 30.8122 28.8821C33.048 28.8821 34.7249 27.1913 35.3258 24.2987L35.5633 23.1528H40.0629C44.2271 23.1528 44.6183 23.1389 45.317 22.8734C46.3371 22.4961 47.1336 21.7694 47.6087 20.8052L48 20.0087V11.6943V3.37991L47.6646 2.68122C47.2175 1.80087 46.379 0.948473 45.4847 0.515285L44.786 0.16594L31.9301 0.137992C21.6594 0.110045 18.9764 0.137992 18.5712 0.291704ZM44.814 2.41572C45.5127 2.87686 46.1135 3.77118 46.1135 4.38603V4.84716H31.7205H17.3275V4.49782C17.3275 3.78515 18.124 2.66725 18.9345 2.22009C19.1301 2.1083 22.8751 2.06638 31.7205 2.0524H44.241L44.814 2.41572ZM46.1135 14.1537C46.1135 19.3939 46.0996 19.5616 45.8201 20.0786C45.6524 20.3721 45.2891 20.7354 44.9956 20.9031C44.4786 21.1965 44.3808 21.1965 35.2 21.1965H25.9214L27.0672 20.5817C28.6463 19.7293 29.2891 19.2681 30.1555 18.3459C32.0699 16.3197 32.2376 13.469 30.5467 11.7642C29.8061 11.0236 29.0236 10.8 27.5703 10.8838C26.2707 10.9677 25.7397 11.1633 20.9188 13.4271C19.0183 14.3214 17.4253 15.048 17.3974 15.048C17.3555 15.048 17.3275 13.6367 17.3275 11.9039V8.75983H31.7205H46.1135V14.1537ZM22.7214 23.7397C22.6795 24.0751 22.6096 24.676 22.5537 25.0812C22.4699 25.6821 22.3721 25.8917 21.9668 26.255C20.8349 27.2472 19.3258 27.4707 18.9764 26.7022C18.8367 26.3948 18.9485 26.255 20.4856 24.7738C21.6314 23.6699 22.2463 23.1668 22.4838 23.1528C22.7913 23.1528 22.8052 23.1948 22.7214 23.7397ZM28.2969 23.3904C28.241 23.5301 28.1712 24.3686 28.1432 25.2489L28.1013 26.8559L27.5983 27.3729C27.0253 27.9738 26.2987 28.2533 25.6699 28.1275C24.4541 27.9039 24.2166 27.2192 24.524 24.8996C24.6358 24.0052 24.7336 23.2507 24.7336 23.2087C24.7336 23.1808 25.5581 23.1528 26.5642 23.1528C28.255 23.1528 28.3948 23.1668 28.2969 23.3904ZM33.4672 23.7397C33.3135 24.6201 32.8664 25.752 32.4751 26.2131C31.7485 27.0795 30.2812 27.2891 30.0996 26.5485C29.9878 26.1432 30.1275 23.5022 30.2533 23.2926C30.2952 23.2087 31.0638 23.1528 31.9441 23.1528H33.5651L33.4672 23.7397Z" fill="white"/>
</svg>
