<svg width="62" height="48" viewBox="0 0 62 48" fill="none" xmlns="http://www.w3.org/2000/svg">
<path d="M10.6432 0.253474C5.92732 1.27555 2.00039 4.96937 0.512107 9.75699C-0.509969 13.1101 0.0279659 17.2701 1.85694 20.3184L2.48453 21.3584V30.1806C2.48453 40.0786 2.4666 39.8813 3.82937 40.9931C4.6542 41.6744 5.64042 41.9434 7.37974 41.9434H8.68871L8.99354 42.8938C9.62113 44.8662 11.0198 46.4083 13.0639 47.3945C14.1219 47.8965 14.3908 47.9503 15.9329 47.9503C17.2777 47.9324 17.8515 47.8607 18.6764 47.52C20.7026 46.7131 22.3522 44.9558 23.0157 42.8938L23.3205 41.9613L29.4351 41.9075C35.5496 41.8537 35.5675 41.8537 36.3385 41.4234L37.0917 40.9751L37.791 41.3696C38.2213 41.6206 38.9744 41.8179 39.6737 41.8896C40.8034 41.9972 40.8393 42.0151 40.9648 42.5531C41.162 43.5393 42.1303 45.1531 43.0448 45.9958C45.9496 48.7034 50.4683 48.6676 53.2476 45.8883C54.1083 45.0276 55.0587 43.3958 55.2738 42.3917L55.3994 41.8537H57.1387C58.6449 41.8358 58.9856 41.782 59.6849 41.4055C60.1153 41.1544 60.7249 40.5986 61.0297 40.1861L61.5677 39.3972L61.6215 32.5833C61.6753 25.2316 61.6215 24.604 60.7787 22.8288C60.0973 21.4302 54.6463 14.1322 53.3552 12.9308C52.7993 12.4108 51.9028 11.7832 51.3649 11.5322L50.3966 11.0839L44.282 11.1377L38.1675 11.1915V9.39836C38.1675 8.05353 38.0779 7.42594 37.8268 6.888C37.4323 5.99144 36.5896 5.25627 35.693 5.00523C35.2985 4.89764 32.7523 4.82592 29.5068 4.82592H23.984L23.446 4.19833C21.9936 2.56659 19.2681 0.988652 16.7577 0.34313C15.0901 -0.0692863 12.3287 -0.12308 10.6432 0.253474ZM16.3274 2.78177C20.0391 3.67832 23.3026 6.95973 24.3067 10.797C24.6474 12.1598 24.6833 14.5984 24.3785 15.9432C23.446 19.8881 20.2364 23.2053 16.3812 24.1916C11.1991 25.5185 5.92731 23.1157 3.66799 18.3998C2.7535 16.4812 2.48453 15.3874 2.48453 13.4687C2.48453 10.4384 3.57833 7.85628 5.71214 5.72248C8.61699 2.81763 12.3108 1.79555 16.3274 2.78177ZM35.4061 7.71283C35.7289 8.07146 35.7468 8.59146 35.7468 23.3847C35.7468 38.1779 35.7289 38.6979 35.4061 39.0565C35.0654 39.433 34.9399 39.433 29.2019 39.433H23.3385L23.1233 38.662C22.2985 35.9006 19.806 33.7309 17.0446 33.3364C13.9784 32.924 10.8584 34.5378 9.49561 37.2634C9.20872 37.8192 8.92182 38.5365 8.85009 38.8592L8.72457 39.433H7.34388C6.19628 39.433 5.85559 39.3613 5.46111 39.0565L4.9949 38.6979V31.3461V24.0122L5.85559 24.6398C10.177 27.724 16.2019 27.8316 20.864 24.8909C22.2805 23.9943 24.4143 21.7529 25.3109 20.2467C27.3192 16.8039 27.624 12.1239 26.0819 8.35836L25.6516 7.33628H30.3675C34.922 7.33628 35.0834 7.35421 35.4061 7.71283ZM50.4504 13.8094C51.1317 14.186 52.6918 15.5667 52.6918 15.7818C52.6918 15.8715 51.3469 15.9432 49.6076 15.9432C46.1469 15.9432 45.4296 16.0687 44.5152 16.8757C43.26 17.9874 43.1524 18.3998 43.2241 22.2909C43.2779 25.7157 43.2779 25.7516 43.78 26.4867C44.0489 26.8992 44.6048 27.455 45.0172 27.724L45.7703 28.2261L52.4587 28.2799L59.147 28.3337V33.444V38.5544L58.6808 38.9848C58.3042 39.3434 57.9994 39.4151 56.8159 39.4689L55.3994 39.5227L55.2918 38.9668C55.0945 37.891 54.1263 36.2592 53.14 35.3268C50.4324 32.7627 46.3262 32.6013 43.3676 34.9503C42.4351 35.6854 41.3055 37.4068 41.0186 38.5365L40.7855 39.433H39.9965C39.3689 39.433 39.1179 39.3255 38.6875 38.913L38.1675 38.393V26.433V14.4729L38.7055 13.9529L39.2434 13.4149L44.5689 13.4687C49.1235 13.5225 49.9842 13.5584 50.4504 13.8094ZM56.3318 20.6053C57.8021 22.5778 58.9497 24.7295 58.9677 25.4826C58.9677 25.7874 58.5552 25.8054 52.7456 25.8054C44.9634 25.8054 45.6986 26.1819 45.6986 22.1474C45.6986 18.1488 45.3041 18.4536 50.6117 18.4536L54.7538 18.4715L56.3318 20.6053ZM18.2102 36.2234C19.304 36.7434 20.3619 38.0344 20.7026 39.2179C21.4019 41.5848 20.3978 43.8979 18.2102 44.9917C14.3012 46.9462 9.97976 43.2344 11.3605 39.0744C12.2929 36.2772 15.5384 34.9323 18.2102 36.2234ZM50.2352 36.2234C53.1759 37.6937 53.929 41.4951 51.7414 43.862C48.5317 47.3765 42.8476 44.9558 43.2241 40.2579C43.3317 38.9489 43.7979 37.9806 44.7662 37.0303C46.1828 35.6854 48.46 35.3447 50.2352 36.2234Z" fill="white"/>
<path d="M12.8126 3.94701L12.3464 4.30564V8.05325C12.3464 11.496 12.3105 11.8547 11.9878 12.3926C11.7905 12.7153 11.6292 13.1457 11.6292 13.325C11.6292 13.5222 10.9478 14.365 10.105 15.2436C8.45535 16.9292 8.3119 17.2878 9.02914 18.005C9.74639 18.7223 10.105 18.5788 11.7905 16.9292C12.6512 16.0864 13.494 15.405 13.6733 15.405C14.1575 15.405 15.0002 14.9029 15.2333 14.4905C15.5202 13.9526 15.4844 12.9664 15.1616 12.4643C14.9285 12.1416 14.8747 11.2809 14.8209 8.16083C14.7671 4.30564 14.7671 4.25184 14.3368 3.91115C13.7988 3.4808 13.4043 3.4808 12.8126 3.94701Z" fill="white"/>
</svg>
