<svg width="48" height="48" viewBox="0 0 48 48" fill="none" xmlns="http://www.w3.org/2000/svg">
<path d="M9.48364 0.222961C8.46545 0.48478 7.95636 0.761143 7.34545 1.37205C6.64727 2.07023 6.28364 2.84114 6.08 4.03387C5.58545 6.95751 7.28727 9.93933 10.4 11.6121L10.9818 11.9175H5.48364H0V17.4448V22.9721H1.01818H2.03636V35.4811V47.9902H24H45.9636V35.4811V22.9721H46.9818H48V17.4448V11.9175L42.5891 11.8884L37.1927 11.8448L37.9491 11.423C39.0255 10.8411 40.4073 9.48842 41.0473 8.41205C42.2982 6.30296 42.3127 3.64114 41.0909 1.88114C39.7236 -0.0970387 35.9273 -0.620675 33.4545 0.819325C31.7673 1.80842 30.9527 2.75387 28.8582 6.21569C26.4291 10.2157 25.7018 10.9284 24 10.9284C22.2982 10.9284 21.5709 10.2157 19.1418 6.21569C17.0764 2.81205 16.2036 1.79387 14.5455 0.819325C13.1927 0.0338704 11.0982 -0.213402 9.48364 0.222961ZM13.5127 2.53569C14.6473 3.16114 15.7527 4.47023 17.2218 6.91387C17.9345 8.1066 18.8073 9.48842 19.1564 9.98296C19.4909 10.4775 19.7818 10.9284 19.7818 10.9866C19.7818 11.0448 18.5891 11.0448 17.1345 11.0011C14.1236 10.9139 12.8 10.6521 11.3164 9.85205C9.35273 8.80478 8.21818 7.3066 8.05818 5.51751C7.89818 3.87387 8.37818 2.8266 9.51273 2.28842C9.99273 2.07023 10.3564 2.0266 11.4182 2.07023C12.5382 2.09932 12.8436 2.17205 13.5127 2.53569ZM38.4873 2.30296C39.6073 2.81205 40.1018 3.87387 39.9418 5.51751C39.7818 7.3066 38.6473 8.80478 36.6836 9.85205C35.2 10.6521 33.8764 10.9139 30.88 11.0011C29.4109 11.0448 28.2182 11.0448 28.2182 10.9866C28.2182 10.9284 28.5091 10.4775 28.8436 9.98296C29.1927 9.48842 30.0655 8.1066 30.7782 6.91387C33.0909 3.05932 34.3564 2.04114 36.8 2.04114C37.5564 2.04114 38.0655 2.11387 38.4873 2.30296ZM18.0364 17.4448V20.9357H10.0364H2.03636V17.4448V13.9539H10.0364H18.0364V17.4448ZM28.0436 29.9975L28.0727 45.9539H24H19.9273V30.0557C19.9273 21.2993 19.9709 14.0993 20.0291 14.0557C20.0873 13.9975 21.8909 13.9684 24.0582 13.983L28 14.0266L28.0436 29.9975ZM45.9636 17.4448V20.9357H37.9636H29.9636V17.4448V13.9539H37.9636H45.9636V17.4448ZM18.0364 34.463V45.9539H10.9818H3.92727V34.463V22.9721H10.9818H18.0364V34.463ZM44.0727 34.463V45.9539H37.0182H29.9636V34.463V22.9721H37.0182H44.0727V34.463Z" fill="white"/>
</svg>
