<svg width="22" height="21" viewBox="0 0 22 21" fill="none" xmlns="http://www.w3.org/2000/svg">
<path d="M0 10.5879V21H11H22V10.5879V0.175782H11H0V10.5879ZM21.1047 10.5879V19.8244H11H0.895349V10.5879V1.35134H11H21.1047V10.5879Z" fill="white"/>
<path d="M1.79102 4.89477L1.79741 5.59171L6.40206 9.00924L11.0067 12.4268L15.5922 9.01763C18.1119 7.14513 20.184 5.60011 20.1968 5.59171C20.2096 5.57492 20.2096 5.27263 20.1968 4.90317L20.1776 4.23142L15.6369 7.61536C13.1428 9.47946 11.0579 10.9993 11.0131 11.0077C10.9492 11.0077 2.97416 5.12149 2.00206 4.35737L1.79102 4.18944V4.89477Z" fill="white"/>
</svg>
