<svg width="11" height="24" viewBox="0 0 11 24" fill="none" xmlns="http://www.w3.org/2000/svg">
<path d="M0.120156 0.129208L0 0.265968L0.0114434 10.9788L0.0286085 21.6916L0.217424 22.2006C0.446292 22.8236 0.909749 23.4087 1.43042 23.7354L1.80233 23.9709L5.21818 23.9937C8.60543 24.0089 8.62831 24.0089 8.96017 23.8493C9.41791 23.6214 9.89281 22.9908 10.0587 22.3906L10.1846 21.9499V13.3341C10.1846 4.82461 10.1846 4.71064 10.0645 4.30036C9.83559 3.47981 9.23481 2.834 8.55965 2.66685C8.34223 2.61367 7.0949 2.58328 5.08086 2.58328H1.94538V1.45881C1.94538 -0.0303439 1.96826 4.70184e-05 0.961245 4.70184e-05C0.360467 4.70184e-05 0.223146 0.0228402 0.120156 0.129208ZM1.14434 2.1578C1.14434 3.14551 1.15578 3.26707 1.26449 3.44942L1.37893 3.64696H4.88633C7.3581 3.64696 8.45094 3.66975 8.58826 3.73053C8.88007 3.86729 9.14327 4.14841 9.28631 4.5055L9.41219 4.82461V13.3341V21.8435L9.25198 22.2006C9.14899 22.4361 9.00022 22.6337 8.82285 22.7704L8.55393 22.9832L5.41272 23.006C1.89388 23.0288 1.92821 23.0364 1.40181 22.5045C1.24161 22.3374 1.05279 22.0487 0.949801 21.8055L0.772429 21.3877L0.755264 11.2219L0.74382 1.06373H0.944079H1.14434V2.1578Z" fill="white"/>
<path d="M2.26013 5.37147C1.99121 5.55382 1.76807 5.85773 1.65363 6.19203C1.55637 6.46555 1.54492 6.71627 1.54492 8.88922C1.54492 11.5332 1.56209 11.6396 1.92255 12.0955C2.2773 12.5361 2.28302 12.5361 5.09237 12.5361C7.90172 12.5361 7.90745 12.5361 8.26219 12.0955C8.62266 11.6472 8.63982 11.5256 8.63982 8.90442C8.63982 6.32119 8.62838 6.19963 8.30796 5.74376C8.22214 5.6222 8.05049 5.46265 7.92461 5.38667C7.71291 5.25751 7.50693 5.24231 5.06376 5.24991C2.77509 5.24991 2.4089 5.26511 2.26013 5.37147ZM7.74724 6.47314C7.82734 6.6175 7.83879 6.98219 7.83879 8.88922C7.83879 10.7963 7.82734 11.1609 7.74724 11.3053L7.66141 11.4725H5.09237H2.52333L2.43751 11.3053C2.3574 11.1609 2.34596 10.7963 2.34596 8.88922C2.34596 6.98219 2.3574 6.6175 2.43751 6.47314L2.52333 6.30599H5.09237H7.66141L7.74724 6.47314Z" fill="white"/>
<path d="M2.35146 13.7371C1.84795 14.0942 1.81935 15.1047 2.29996 15.4998C2.44873 15.6289 2.55744 15.6517 2.79775 15.6289C3.06666 15.6061 3.13532 15.5606 3.30125 15.325C3.46146 15.0895 3.49006 14.9907 3.49006 14.6868C3.49006 13.8283 2.90074 13.342 2.35146 13.7371Z" fill="white"/>
<path d="M4.70857 13.7519C4.33093 14.0558 4.21077 14.5497 4.39959 15.0587C4.54264 15.4538 4.77151 15.6514 5.09194 15.6514C5.41236 15.6514 5.64123 15.4538 5.78428 15.0587C6.11615 14.1622 5.34942 13.2277 4.70857 13.7519Z" fill="white"/>
<path d="M7.0548 13.7523C6.82021 13.9422 6.69434 14.2689 6.69434 14.702C6.69434 14.9831 6.72867 15.0971 6.88315 15.325C7.04908 15.5606 7.11774 15.6061 7.38666 15.6289C7.62697 15.6517 7.73568 15.6289 7.88445 15.4998C8.23347 15.2111 8.33646 14.4817 8.09043 14.0258C7.86156 13.6079 7.38666 13.4788 7.0548 13.7523Z" fill="white"/>
<path d="M2.40331 16.8516C1.98564 17.1252 1.83116 17.7862 2.06002 18.2876C2.2145 18.6295 2.4262 18.7891 2.71228 18.7891C3.17572 18.7891 3.49041 18.3712 3.49041 17.7634C3.49041 17.3531 3.33593 17.0036 3.07274 16.844C2.81527 16.6769 2.65506 16.6845 2.40331 16.8516Z" fill="white"/>
<path d="M4.77733 16.8211C4.26238 17.1326 4.14794 17.9683 4.54846 18.4926C4.8746 18.9257 5.30946 18.9257 5.63559 18.4926C6.10478 17.8696 5.83013 16.8439 5.17213 16.7451C5.04626 16.7299 4.8746 16.7603 4.77733 16.8211Z" fill="white"/>
<path d="M7.10057 16.844C6.84882 17.0112 6.69434 17.3607 6.69434 17.7634C6.69434 18.3712 7.00903 18.7891 7.47248 18.7891C7.75857 18.7891 7.97027 18.6295 8.12475 18.2876C8.51955 17.4367 7.77573 16.3882 7.10057 16.844Z" fill="white"/>
<path d="M2.5747 19.8904C2.23712 19.9588 1.94531 20.4527 1.94531 20.9465C1.94531 21.41 2.35727 21.957 2.7063 21.957C3.16403 21.957 3.49017 21.5088 3.49017 20.8706C3.49017 20.5666 3.46156 20.4679 3.30708 20.2399C3.11254 19.9664 2.84362 19.8373 2.5747 19.8904Z" fill="white"/>
<path d="M4.84619 19.9442C4.55439 20.081 4.48573 20.1645 4.37129 20.5596C4.29119 20.8407 4.28547 20.9471 4.34269 21.1978C4.52006 21.9804 5.29249 22.1931 5.68728 21.5701C5.89326 21.2434 5.92759 20.9015 5.79027 20.4912C5.61862 19.9822 5.23527 19.7619 4.84619 19.9442Z" fill="white"/>
<path d="M7.26635 19.9132C7.1462 19.9512 6.99171 20.0804 6.883 20.2399C6.43099 20.8933 6.8029 21.957 7.47805 21.957C7.82708 21.957 8.23903 21.41 8.23903 20.9465C8.23903 20.2475 7.78702 19.7689 7.26635 19.9132Z" fill="white"/>
</svg>
