<svg width="26" height="24" viewBox="0 0 26 24" fill="none" xmlns="http://www.w3.org/2000/svg">
<path d="M9.96182 0.0323801C5.95249 0.349411 3.98487 0.699238 3.1122 1.23491C2.51121 1.61753 1.90199 2.38278 1.63854 3.09337C1.17751 4.35056 0.905833 8.37357 0.971695 13.0634C1.02932 17.1848 1.26807 19.7539 1.71264 20.9127C1.97609 21.6014 2.64294 22.4322 3.19453 22.7602C5.20331 23.9299 13.8477 24.3891 19.5118 23.6238C22.2533 23.2521 23.1753 22.8914 23.941 21.9075C24.5008 21.175 24.7066 20.4863 24.896 18.6607C25.2088 15.709 25.2664 14.5721 25.2664 11.5548C25.2664 8.51568 25.2088 7.53179 24.896 4.99555C24.649 3.03871 24.3773 2.32812 23.5705 1.54101C22.7966 0.775762 22.1051 0.589917 18.7297 0.24009C17.2313 0.0761084 11.1803 -0.0660087 9.96182 0.0323801ZM18.7297 1.75965C20.5656 1.98923 21.7922 2.2188 22.3027 2.43744C22.8378 2.67795 23.4552 3.47599 23.5787 4.07725C23.7269 4.79877 23.9821 7.21476 24.0892 8.82178C24.2291 10.9754 24.1386 14.7032 23.8751 17.3379C23.6199 19.9397 23.5705 20.2021 23.2083 20.7378C22.8131 21.3062 22.3027 21.6123 21.2818 21.8419C17.6182 22.6618 11.4684 22.8258 6.92395 22.2136C4.4706 21.8747 3.47444 21.4702 3.00517 20.6066C2.14074 19.0324 1.7785 11.4783 2.30539 6.14342C2.55238 3.69463 2.70056 3.29014 3.5897 2.69981C4.27301 2.22973 6.10891 1.86897 9.01506 1.6066C10.7028 1.45355 17.0749 1.55194 18.7297 1.75965Z" fill="white"/>
<path d="M10.0029 12.0027C10.0029 16.9549 10.0194 18.0044 10.11 17.9278C10.1676 17.8841 11.9294 16.5395 14.0205 14.9543C16.1116 13.3692 17.824 12.0354 17.824 11.9917C17.824 11.9261 14.7532 9.5648 10.8097 6.6022L10.0029 5.99V12.0027ZM13.3948 10.2644C14.605 11.1827 15.593 11.9589 15.593 11.9917C15.593 12.0573 11.2214 15.3807 11.139 15.3807C11.0979 15.3807 11.0732 13.8502 11.0732 11.9917C11.0732 10.1223 11.0979 8.60277 11.139 8.60277C11.172 8.60277 12.1846 9.35709 13.3948 10.2644Z" fill="white"/>
</svg>
