<svg width="25" height="24" viewBox="0 0 25 24" fill="none" xmlns="http://www.w3.org/2000/svg">
<path d="M5.90167 0.105367C3.13101 0.710899 0.95919 2.90197 0.392282 5.67467C0.280497 6.2324 0.272512 7.03712 0.288482 12.2877C0.32042 18.2395 0.32042 18.2634 0.496082 18.8609C1.23067 21.2751 3.09108 23.1156 5.50244 23.8167L6.14121 24H12.3293H18.5174L19.1561 23.8167C21.5755 23.1236 23.4599 21.2432 24.1625 18.8211L24.3461 18.1837V12.0089V5.83402L24.1625 5.19662C23.4758 2.80636 21.6154 0.93399 19.1961 0.200977C18.5972 0.0256916 18.5892 0.0256916 12.5289 0.00178897C7.36286 -0.00617857 6.38075 0.0097565 5.90167 0.105367ZM18.717 1.20489C19.0044 1.28456 19.5793 1.50765 19.9945 1.71481C20.6493 2.02554 20.8569 2.18489 21.5196 2.83823C22.1743 3.49954 22.334 3.70669 22.6454 4.36003C23.3321 5.77028 23.3081 5.45955 23.3081 12.0089C23.3081 18.5582 23.3321 18.2474 22.6454 19.6577C22.334 20.311 22.1743 20.5182 21.5196 21.1795C20.8569 21.8328 20.6493 21.9922 19.9945 22.3029C18.5813 22.9881 18.8927 22.9642 12.3293 22.9642C5.76593 22.9642 6.07733 22.9881 4.66405 22.3029C4.00932 21.9922 3.80172 21.8328 3.13899 21.1795C2.48425 20.5182 2.32456 20.311 2.01316 19.6577C1.32648 18.2474 1.35044 18.5582 1.35044 12.0089C1.35044 5.45955 1.32648 5.77028 2.01316 4.36003C2.32456 3.72263 2.49224 3.49157 3.10705 2.87807C4.12908 1.85026 5.24693 1.27659 6.57238 1.10131C6.85983 1.06147 9.59855 1.03757 12.6487 1.04554C17.687 1.06147 18.2459 1.07741 18.717 1.20489Z" fill="white"/>
<path d="M18.3409 4.51886C17.4227 5.07659 17.8379 6.51074 18.9158 6.51074C19.5226 6.51074 19.9937 6.04066 19.9937 5.43512C19.9937 4.59057 19.0675 4.07268 18.3409 4.51886Z" fill="white"/>
<path d="M11.4914 6.04155C10.7728 6.1531 10.2618 6.32042 9.5272 6.68692C8.98425 6.94985 8.70479 7.16497 8.08997 7.77847C7.42725 8.43978 7.26755 8.64694 6.95615 9.30027C6.47708 10.2882 6.31738 10.9575 6.31738 12.0092C6.31738 13.061 6.47708 13.7302 6.95615 14.7182C7.26755 15.3636 7.42725 15.5787 8.08997 16.24C8.75269 16.9013 8.96828 17.0607 9.61503 17.3714C10.6211 17.8654 11.2758 18.0088 12.3697 18.0088C14.0864 18.0008 15.3081 17.4829 16.5696 16.232C17.2164 15.5867 17.3841 15.3636 17.7035 14.7182C18.1825 13.7382 18.3422 13.0689 18.3422 12.0092C18.3422 10.9575 18.1825 10.2882 17.7035 9.30027C17.3921 8.64694 17.2324 8.43978 16.5696 7.78644C15.6993 6.91798 14.9168 6.45586 13.8948 6.19294C13.1602 6.00968 12.1302 5.93797 11.4914 6.04155ZM13.3279 7.18888C15.4837 7.63506 17.1046 9.50743 17.2563 11.7144C17.4479 14.6067 14.9328 17.1164 12.0344 16.9252C10.2618 16.8057 8.71277 15.7699 7.93028 14.2003C7.20368 12.7263 7.21166 11.2842 7.94625 9.77833C8.91239 7.82628 11.164 6.73473 13.3279 7.18888Z" fill="white"/>
</svg>
