<svg width="24" height="24" viewBox="0 0 24 24" fill="none" xmlns="http://www.w3.org/2000/svg">
<path d="M9.18762 0.566816C5.00637 0.998066 1.52824 4.1715 0.707931 8.31057C-0.210819 12.9184 2.32043 17.5074 6.71731 19.2231C9.77356 20.4137 13.3736 19.9168 15.9798 17.9434C16.1439 17.8215 16.3032 17.7184 16.3314 17.7184C16.3595 17.7184 17.6392 18.9746 19.172 20.5121C21.0564 22.4012 22.022 23.334 22.1486 23.3949C22.8939 23.7418 23.7283 22.9449 23.4142 22.1809C23.3626 22.059 22.4767 21.1449 20.5079 19.1715L17.6767 16.3356L17.9251 16.0074C19.5845 13.8184 20.2314 10.9028 19.6595 8.20275C19.3736 6.84338 18.7501 5.47463 17.9064 4.35432C17.5267 3.84807 16.5423 2.86369 16.0361 2.484C14.0767 1.01213 11.6111 0.318378 9.18762 0.566816ZM11.4611 2.54963C13.1626 2.85432 14.5876 3.60432 15.7548 4.809C16.8986 5.99963 17.5689 7.34025 17.8642 9.0465C17.9439 9.50119 17.9439 10.8887 17.8642 11.3434C17.5501 13.1481 16.7907 14.6012 15.5204 15.8059C14.3861 16.884 12.9657 17.5871 11.4236 17.8449C10.8376 17.9387 9.65168 17.9481 9.09387 17.8637C6.5345 17.4699 4.41574 15.9371 3.25793 13.6356C2.70949 12.5528 2.46574 11.484 2.46574 10.1949C2.46574 9.36994 2.50793 9.009 2.70012 8.24963C3.16887 6.37932 4.45793 4.62619 6.10324 3.61838C7.18137 2.95744 8.1845 2.62463 9.56262 2.46525C9.87668 2.42775 11.0861 2.484 11.4611 2.54963Z" fill="white"/>
</svg>
