<svg width="21" height="21" viewBox="0 0 21 21" fill="none" xmlns="http://www.w3.org/2000/svg">
<path d="M1.16619 0.286758C1.09904 0.347804 1.01968 0.476002 1.00137 0.579781C0.970842 0.738502 1.02578 0.830072 1.38596 1.28182C1.85602 1.86786 2.24671 2.58211 2.43596 3.19257C2.50311 3.42455 2.90602 5.88473 3.32724 8.65624C4.04148 13.3507 4.10253 13.7292 4.27956 14.0833C4.48712 14.5167 4.82288 14.8403 5.31125 15.0722L5.64701 15.231L10.8543 15.2493L16.0615 15.2676L16.2386 15.0844C16.3424 14.9868 16.4217 14.8586 16.4217 14.8036C16.4217 14.7243 16.2813 14.3946 16.2203 14.3336C16.2142 14.3214 13.87 14.303 11.0069 14.2847L5.81183 14.2542L5.54933 14.0711C5.40282 13.9673 5.23799 13.8025 5.17695 13.7048C5.10369 13.5705 4.87782 12.2214 4.39555 9.08356C4.02927 6.6417 3.72404 4.60275 3.72404 4.55391C3.72404 4.46845 4.48102 4.45624 11.2938 4.45624C16.4644 4.45624 18.8636 4.47455 18.8636 4.51728C18.8636 4.6699 17.8807 8.68676 17.7708 8.96758C17.4717 9.76729 16.7025 10.4205 15.8418 10.6158C15.6769 10.6525 13.5464 10.9699 11.1107 11.324C8.67491 11.678 6.62375 11.9955 6.55049 12.026C6.06212 12.2336 6.21474 12.9417 6.74584 12.9417C6.92898 12.9417 10.5307 12.4289 14.8894 11.7757C15.5854 11.6719 16.2996 11.5315 16.5194 11.4522C17.0505 11.2568 17.6488 10.8539 18.015 10.4449C18.595 9.79781 18.7354 9.40711 19.413 6.58676C19.7488 5.18879 20.0235 3.98618 20.0235 3.91903C20.0235 3.85188 19.9685 3.73589 19.9075 3.65653L19.7915 3.51002L11.6601 3.47949L3.52869 3.44897L3.37607 2.93618C3.12578 2.06321 2.58247 1.10478 1.98421 0.482107C1.75224 0.244025 1.66067 0.182979 1.49584 0.182979C1.38596 0.182979 1.23945 0.231816 1.16619 0.286758Z" fill="white"/>
<path d="M6.89211 16.6045C6.46478 16.6777 6.08019 16.867 5.75054 17.1783C4.68222 18.1795 4.97524 19.9803 6.31827 20.6335C6.57466 20.7617 6.70897 20.7861 7.20344 20.7861C7.69792 20.7861 7.83222 20.7617 8.11914 20.6274C9.29124 20.078 9.68804 18.6251 8.9799 17.5079C8.56478 16.8547 7.68571 16.4763 6.89211 16.6045ZM7.90548 17.7888C8.57699 18.3015 8.47321 19.3515 7.72234 19.7178C6.95926 20.0902 6.08629 19.553 6.08629 18.7167C6.08629 18.3015 6.28775 17.9292 6.6235 17.7277C6.83106 17.5995 6.92873 17.5812 7.2706 17.5934C7.60635 17.6117 7.71624 17.6484 7.90548 17.7888Z" fill="white"/>
<path d="M13.9369 16.6042C13.2592 16.7019 12.6427 17.1658 12.3435 17.8129C12.2031 18.112 12.1787 18.2402 12.1787 18.7103C12.1787 19.1865 12.2031 19.3024 12.3496 19.6016C12.5755 20.0655 13.0639 20.5173 13.5217 20.6882C14.0284 20.8835 14.7305 20.8469 15.2127 20.6149C15.6339 20.4074 16.0124 20.0045 16.2261 19.5466C16.4581 19.0399 16.452 18.3623 16.22 17.8556C16.0185 17.4222 15.6401 17.0132 15.2555 16.8179C15.0113 16.6897 14.8526 16.6469 14.3764 16.5798C14.3092 16.5676 14.1139 16.5798 13.9369 16.6042ZM14.8587 17.7274C15.2005 17.9228 15.4081 18.3074 15.4081 18.7103C15.3959 19.5772 14.5412 20.0899 13.7476 19.7115C12.9235 19.3085 12.9296 18.112 13.7659 17.6786C14.0528 17.5321 14.5595 17.5504 14.8587 17.7274Z" fill="white"/>
</svg>
