<svg width="19" height="24" viewBox="0 0 19 24" fill="none" xmlns="http://www.w3.org/2000/svg">
<path d="M2.99976 4.55833L2.98093 9.125L1.4936 9.15L0 9.16667V15.075C0 18.3167 0.018827 21.6583 0.0439296 22.4833L0.0815835 24H9.52016H18.9525V13.125V2.25H15.5009H12.0492V8V13.75H10.9824H9.91553V6.875V-1.2517e-06H6.46392H3.01231L2.99976 4.55833ZM9.03694 7.41667V13.75H7.97008H6.90322V11.4583V9.16667H5.39706H3.8909V5.125V1.08333H6.46392H9.03694V7.41667ZM18.1241 13.1417L18.1053 22.875L17.0258 22.9L15.9402 22.9167V21.75V20.575L15.5197 20.6L15.0929 20.625L15.0741 21.7667L15.0553 22.9167H13.9947H12.9278V13.1667V3.41667H15.5322H18.1366L18.1241 13.1417ZM6.02462 16.5833V22.9167L4.94521 22.9L3.85952 22.875L3.8407 21.725L3.82187 20.5833H3.42023H3.01231V21.75V22.9167L1.96428 22.9L0.909969 22.875L0.878591 16.625C0.859764 13.1833 0.853488 10.35 0.86604 10.3083C0.878591 10.275 2.03959 10.25 3.45788 10.25H6.02462V16.5833ZM12.0492 18.875V22.9167H10.9824H9.91553V21.75V20.5833H9.47623H9.03694V21.75V22.9167H7.97008H6.90322V18.875V14.8333H9.47623H12.0492V18.875Z" fill="white"/>
<path d="M5.14648 2.83392V3.41699H5.58578H6.02507V2.83392V2.25086H5.58578H5.14648V2.83392Z" fill="white"/>
<path d="M6.90332 2.83392V3.41699H7.31124H7.71916V2.83392V2.25086H7.31124H6.90332V2.83392Z" fill="white"/>
<path d="M5.14648 5.12557V5.66699H5.58578H6.02507V5.12557V4.58415H5.58578H5.14648V5.12557Z" fill="white"/>
<path d="M6.90332 5.12557V5.66699H7.31124H7.71916V5.12557V4.58415H7.31124H6.90332V5.12557Z" fill="white"/>
<path d="M14.2451 5.12557V5.66699H14.653H15.061V5.12557V4.58415H14.653H14.2451V5.12557Z" fill="white"/>
<path d="M15.9404 5.12557V5.66699H16.3797H16.819V5.12557V4.58415H16.3797H15.9404V5.12557Z" fill="white"/>
<path d="M14.2451 7.41693V8H14.653H15.061V7.41693V6.83387H14.653H14.2451V7.41693Z" fill="white"/>
<path d="M15.9404 7.41693V8H16.3797H16.819V7.41693V6.83387H16.3797H15.9404V7.41693Z" fill="white"/>
<path d="M14.2451 9.70858V10.25H14.653H15.061V9.70858V9.16716H14.653H14.2451V9.70858Z" fill="white"/>
<path d="M15.9404 9.70858V10.25H16.3797H16.819V9.70858V9.16716H16.3797H15.9404V9.70858Z" fill="white"/>
<path d="M14.2451 11.9999V12.583H14.653H15.061V11.9999V11.4169H14.653H14.2451V11.9999Z" fill="white"/>
<path d="M15.9404 11.9999V12.583H16.3797H16.819V11.9999V11.4169H16.3797H15.9404V11.9999Z" fill="white"/>
<path d="M14.2451 14.2916V14.833H14.653H15.061V14.2916V13.7502H14.653H14.2451V14.2916Z" fill="white"/>
<path d="M15.9404 14.2916V14.833H16.3797H16.819V14.2916V13.7502H16.3797H15.9404V14.2916Z" fill="white"/>
<path d="M14.2451 16.5839V17.167H14.653H15.061V16.5839V16.0009H14.653H14.2451V16.5839Z" fill="white"/>
<path d="M15.9404 16.5839V17.167H16.3797H16.819V16.5839V16.0009H16.3797H15.9404V16.5839Z" fill="white"/>
<path d="M14.2451 18.8756V19.417H14.653H15.061V18.8756V18.3342H14.653H14.2451V18.8756Z" fill="white"/>
<path d="M15.9404 18.8756V19.417H16.3797H16.819V18.8756V18.3342H16.3797H15.9404V18.8756Z" fill="white"/>
<path d="M2.13379 11.9999V12.583H2.57308H3.01237V11.9999V11.4169H2.57308H2.13379V11.9999Z" fill="white"/>
<path d="M3.89062 11.9999V12.583H4.29855H4.70647V11.9999V11.4169H4.29855H3.89062V11.9999Z" fill="white"/>
<path d="M2.13379 14.2916V14.833H2.57308H3.01237V14.2916V13.7502H2.57308H2.13379V14.2916Z" fill="white"/>
<path d="M3.89062 14.2916V14.833H4.29855H4.70647V14.2916V13.7502H4.29855H3.89062V14.2916Z" fill="white"/>
<path d="M2.13379 16.5839V17.167H2.57308H3.01237V16.5839V16.0009H2.57308H2.13379V16.5839Z" fill="white"/>
<path d="M4 16.5829V17.166H4.40792H4.81584V16.5829V15.9999H4.40792H4V16.5829Z" fill="white"/>
<path d="M8.1582 16.5839V17.167H8.5975H9.0368V16.5839V16.0009H8.5975H8.1582V16.5839Z" fill="white"/>
<path d="M9.91602 16.5839V17.167H10.3553H10.7946V16.5839V16.0009H10.3553H9.91602V16.5839Z" fill="white"/>
<path d="M8.1582 18.8756V19.417H8.5975H9.0368V18.8756V18.3342H8.5975H8.1582V18.8756Z" fill="white"/>
<path d="M9.91602 18.8756V19.417H10.3553H10.7946V18.8756V18.3342H10.3553H9.91602V18.8756Z" fill="white"/>
</svg>
